<svg width="37" height="54" viewBox="0 0 37 54" fill="none" xmlns="http://www.w3.org/2000/svg">
<path fill-rule="evenodd" clip-rule="evenodd" d="M17.6104 0C16.6276 0 15.8308 0.796783 15.8308 1.77966V51.6102C15.8308 52.5931 16.6276 53.3898 17.6104 53.3898H19.3901C20.373 53.3898 21.1698 52.593 21.1698 51.6102V1.77966C21.1698 0.796781 20.373 0 19.3901 0H17.6104ZM25.3233 5.33867H22.3572V47.4573H25.3233C26.3061 47.4573 27.1029 46.6605 27.1029 45.6777V7.11833C27.1029 6.13545 26.3061 5.33867 25.3233 5.33867ZM8.71273 14.8301H6.33985C5.35697 14.8301 4.56019 15.6269 4.56019 16.6098V36.1861C4.56019 37.169 5.35697 37.9657 6.33985 37.9657H8.71273V14.8301ZM28.2885 14.8301H30.6614C31.6442 14.8301 32.441 15.6269 32.441 16.6098V36.1861C32.441 37.169 31.6442 37.9657 30.6614 37.9657H28.2885V14.8301ZM14.6441 5.33867H11.678C10.6951 5.33867 9.89829 6.13545 9.89829 7.11833V45.6777C9.89829 46.6605 10.6951 47.4573 11.678 47.4573H14.6441V5.33867Z" fill="white"/>
<path d="M0.555085 25.2115L0.555085 27.5843C0.555085 28.6491 1.41826 29.5123 2.48305 29.5123L34.5169 29.5123C35.5817 29.5123 36.4449 28.6491 36.4449 27.5843L36.4449 25.2115C36.4449 24.1467 35.5817 23.2835 34.5169 23.2835L2.48305 23.2835C1.41826 23.2835 0.555084 24.1467 0.555085 25.2115Z" fill="white" stroke="#282524" stroke-width="0.889831"/>
</svg>
